<svg xmlns="http://www.w3.org/2000/svg" viewBox="1436.0124 22.0 97.675091 81.825143">
  <path d="M 1533.0312,40.96875 C 1529.849,42.018339 1524.7599,42.977028 1523.9375,42.46875 1522.2004,41.39515 1522.9574,33.874108 1525.1875,29.90625 1527.4426,25.893835 1527.1277,23.803303 1524.5938,25.90625 1522.5854,27.572983 1520,35.587395 1520,40.125 1520,44.888119 1522.9112,47.377611 1526.7812,45.90625 1529.7083,44.793401 1531.376,45.898086 1530.4375,48.34375 1529.6969,50.273808 1526.6402,50.480253 1522.125,48.90625 1518.2854,47.567729 1517.2253,48.291276 1512.4375,55.46875 1510.5872,58.24259 1507.8807,61.927374 1506.4375,63.6875 1504.9914,65.450976 1504.1359,67.42292 1504.5312,68.0625 1505.4942,69.620663 1513.6198,60.880793 1515.5938,56.15625 1517.5624,51.444567 1518.4097,51.021587 1523.3438,52.4375 1525.6255,53.09229 1528.28,53.467157 1529.25,53.25 1530.9053,52.879411 1533.0049,49.583541 1533.6875,46.78125 L 1533.3438,46 1533.0312,40.96875 z M 1514.1875,22 C 1512.4871,22 1509.0101,26.699356 1508.375,29.875 1508.0127,31.686155 1508.2716,36.211328 1508.9688,39.90625 1510.3583,47.271064 1509.6966,49.658664 1504.7188,55 1498.3714,61.81083 1498.7846,61.755578 1491.4375,56.96875 1484.3034,52.320757 1485.2858,52.39439 1476.3438,55.71875 1475.6999,55.958071 1475.0099,55.09205 1474.8125,53.8125 1474.4003,51.140316 1477.428,38.165686 1478.7812,36.8125 1479.3202,36.273617 1481.5015,36.406616 1484.1875,37.125 1489.6687,38.591011 1491.7406,37.929926 1492.625,34.40625 1493.4768,31.012155 1492.0998,27.133207 1489.4375,25.375 1487.6081,24.166827 1486.8509,24.339823 1482.6562,27 1480.0578,28.647844 1477.6121,30.002628 1477.2188,30 1476.8254,29.997373 1474.7807,28.422373 1472.6875,26.5 1470.5944,24.577628 1468.5464,23 1468.125,23 1467.7036,23 1465.598,24.334051 1463.4375,25.96875 1461.2771,27.603449 1459.1269,28.953449 1458.6562,28.96875 1458.1857,28.984051 1456.4466,27.875 1454.8125,26.5 1449.2341,21.806063 1445.6621,24.105046 1446.6875,31.75 1446.994,34.034677 1448.0681,36.662592 1449.0625,37.5625 1450.739,39.079772 1451.1036,39.049019 1453.9375,37.375 1455.8476,36.246631 1457.3091,35.931315 1457.8438,36.53125 1458.6143,37.395939 1462,51.659717 1462,54.03125 1462,55.588917 1458.229,55.163799 1451.4688,52.84375 1445.9687,50.956169 1444.773,50.833107 1442.0312,51.96875 1435.7743,54.560432 1434.086,65.629383 1438.4375,75.46875 1439.7822,78.509432 1441.3572,81 1441.9375,81 1443.1979,81 1443.2405,80.882218 1443.5,74.5 1443.612,71.745533 1444.4276,68.086168 1445.3125,66.375 1446.6209,63.844671 1447.4026,63.355042 1449.4688,63.75 1452.4355,64.317144 1457.7016,69.945319 1458.5938,73.5 1459.0187,75.193327 1458.3824,77.354236 1456.5938,80.40625 1453.3816,85.887409 1453.1597,92.122813 1456,96.78125 1458.0433,100.13259 1460.8242,101.71254 1467,103.03125 1474.0252,104.53132 1475.1877,104.20249 1479.625,99.4375 1483.2034,95.594945 1483.9827,93.984562 1484.5625,89.34375 1485.157,84.585714 1484.9625,83.447204 1483.125,81.15625 1478.3872,75.24943 1477.7676,74.013303 1478.4062,71.46875 1479.5385,66.9575 1483.6984,66.959036 1490.3438,71.46875 1495.7877,75.163072 1498.1456,75.47775 1501.375,72.9375 1504.9191,70.149693 1503.4445,67.903524 1499.4688,70.03125 1497.1112,71.292953 1496.3863,71.114245 1491.0625,68.1875 1483.3471,63.945931 1478.6377,63.864224 1476.5312,67.9375 1474.0633,72.710009 1474.6195,76.349269 1478.5312,81.03125 1481.5974,84.701235 1481.9588,85.716602 1481.4062,88.875 1480.1814,95.876122 1476.3452,100.04417 1471.1875,99.9375 1465.1539,99.812718 1460.8661,97.739663 1458.8438,93.96875 1456.5241,89.643653 1456.5218,87.530533 1458.875,83.625 1462.415,77.749906 1463.2755,73.470963 1461.5938,70.21875 1458.1875,63.631815 1448.8051,58.256979 1445.5,61 1444.7264,61.641972 1443.3348,64.162074 1442.4062,66.59375 1441.4776,69.025427 1440.38,71 1439.9688,71 1437.334,71 1438.8679,57.593823 1441.75,55.40625 1444.1536,53.581841 1444.4867,53.606034 1454.25,56.90625 1458.9858,58.507028 1463.1201,59.567444 1463.4375,59.25 1464.7161,57.971471 1463.8667,47.09013 1462,40.5625 1459.7841,32.81404 1460.3481,30.750602 1465.3125,28.09375 1467.6926,26.819934 1468.1752,26.957687 1471.9375,29.9375 1474.1727,31.707815 1475.9781,33.477466 1475.9688,33.84375 1475.9592,34.210034 1475.0811,37.875 1474,42 1471.8988,50.016872 1471.3646,60.489249 1473,61.5 1473.5468,61.837918 1475.4593,61.042874 1477.25,59.71875 1482.8659,55.566229 1483.6817,55.609482 1490.1875,60.5 1493.4857,62.979328 1496.8112,65 1497.5625,65 1499.2094,65 1507.1928,56.95702 1510.7188,51.75 1513.3646,47.84277 1513.3863,46.960744 1511.1875,36.5 1510.2311,31.949962 1511.0744,27.769422 1513.4062,25.4375 1515.1222,23.721478 1515.5223,22 1514.1875,22 z M 1520.1875,24.625 C 1517.5918,23.020751 1511.5688,37.88725 1513.5312,41.0625 1514.7167,42.98052 1516.4907,41.312864 1516.1875,38.5625 1515.8297,35.317469 1517.6734,29.154637 1519.6875,26.84375 1520.5243,25.883609 1520.7412,24.967165 1520.1875,24.625 z M 1450.9375,27.53125 C 1451.2192,27.607738 1451.5899,27.77832 1452.0625,28.03125 1453.4962,28.798527 1454.0282,29.93654 1453.8125,31.75 1453.5013,34.366541 1451.9699,35.626145 1450.6875,34.34375 1450.3094,33.965625 1450,32.165184 1450,30.3125 1450,27.994019 1450.0923,27.301785 1450.9375,27.53125 z M 1487.4375,28 C 1489.4595,28 1490.573,32.604737 1489,34.5 1488.3213,35.317858 1487.4701,35.964594 1487.125,35.90625 1485.5069,35.632751 1481,32.801246 1481,32.0625 1481,30.905249 1485.6004,28 1487.4375,28 z" fill="black"/>
</svg>
