<svg xmlns="http://www.w3.org/2000/svg" viewBox="1872.6173 21.306265 70.882657 77.019768">
  <path d="M 1942.3125,28.5625 C 1941.4308,28.400704 1940.7749,27.924872 1940.0625,26.59375 1938.1438,23.0086 1934.2925,20.720948 1931.4375,21.4375 1930.0468,21.786553 1927.1655,24.72694 1924.4062,28.59375 L 1919.7188,35.15625 1915.5312,31.03125 C 1908.7705,24.395973 1902.3424,24.602105 1895.9062,31.65625 1892.7287,35.138988 1891.515,38.292045 1889.5312,48.21875 1887.7085,57.339233 1887.6195,58.755443 1888.9688,57.40625 1889.5072,56.867778 1890.6875,52.674791 1891.5625,48.0625 1893.5597,37.533817 1895.5948,33.18057 1899.9062,30.28125 1905.3596,26.614027 1908.6204,27.227806 1914.0938,32.90625 L 1918.8125,37.78125 1921.9062,34.59375 C 1923.6091,32.836789 1925,31.071952 1925,30.65625 1925,28.99492 1930.6009,23.000028 1932.1562,23 1934.5595,22.999958 1938.7811,28.428557 1940.0625,33.1875 1941.624,38.986494 1939.2854,41.213189 1931,41.8125 1925.1133,42.238305 1924.8636,42.379708 1922.9688,46.09375 1920.2674,51.389073 1920.5039,55.008303 1924.0938,63.1875 1928.1763,72.489047 1929.1014,82.870343 1926.375,88.5625 L 1924.5,92.5 1923.875,86 C 1923.1832,78.730811 1922.7973,77.42398 1919.4375,70.9375 1916.1324,64.556412 1914.9552,55.979484 1916.4688,49.46875 L 1917.6875,44.28125 1912.3438,40.125 C 1906.612,35.690195 1905.4665,35.374727 1901.625,37.125 1895.7705,39.792518 1892.4145,58.35313 1897.0312,62.53125 1898.144,63.538301 1899.7266,66.71826 1900.5625,69.59375 1902.1169,74.940455 1901.8153,78.201602 1899.3438,82.9375 1898.6072,84.349158 1898.0033,87.157459 1898,89.1875 1897.9923,93.760729 1897.1235,94.348374 1893.9688,91.96875 1891.6554,90.223723 1891.5922,89.921501 1892.8438,86.8125 1896.0224,78.916591 1896.3266,77.208031 1895.0625,74.15625 1893.638,70.717238 1889.1715,68.492601 1885.5312,69.40625 1884.1557,69.751501 1881.4664,71.425972 1879.5312,73.125 1876.5311,75.759177 1876,75.936975 1876,74.34375 1876,73.316129 1876.9085,70.691855 1878.0312,68.5 L 1880.0938,64.5 1877.5625,67.28125 C 1874.5377,70.618365 1871.5353,79.910363 1873,81.375 1873.6609,82.035969 1875.7651,80.465545 1879.2812,76.6875 1884.8358,70.719136 1887.0354,69.938751 1890.7812,72.5625 1893.7032,74.609075 1893.8137,81.25149 1891,85.5 1889.9072,87.15 1889.0036,89.002206 1889,89.625 1888.9964,90.247794 1890.865,92.646219 1893.1562,94.9375 1896.7999,98.581125 1897.5102,98.927357 1898.7812,97.65625 1899.5805,96.856919 1900.5318,93.333494 1900.9062,89.84375 1901.2808,86.354006 1902.1526,82.513843 1902.8125,81.3125 1905.6469,76.152366 1903.8401,66.528214 1898.875,60.15625 1897.0551,57.820627 1897.022,55.640664 1898.5938,45.25 1899.1237,41.746477 1902.4053,37.995613 1904.9375,38 1905.7963,38.001488 1908.4153,39.688988 1910.75,41.75 L 1915,45.5 1913.9375,50 C 1912.6201,55.60076 1914.2642,65.383371 1917.5312,71.375 1921.3045,78.294939 1922.5456,85.106321 1921.1562,91.125 1920.498,93.976879 1920.1867,96.530502 1920.4688,96.8125 1921.9664,98.310222 1926.3208,94.497575 1928.5312,89.75 1932.3749,81.493864 1931.5797,72.948024 1925.7812,60.15625 1923.1938,54.447892 1923.0367,53.439969 1924.0938,50.15625 1925.7045,45.151967 1926.7899,44 1929.9688,44 1934.0284,44 1939.2685,42.043732 1941.25,39.78125 1942.2552,38.633435 1943,36.170142 1943,34 1943,32.33466 1943.0855,31.424745 1943.5,30.8125 L 1942.3125,28.5625 z M 1888.375,60.34375 C 1887.1747,60.25207 1884.5091,61.254913 1882.5,62.75 1880.7455,64.05566 1880.727,64.17531 1882.3438,63.625 1883.3573,63.27998 1885.2698,62.707279 1886.5938,62.375 1887.9176,62.042721 1889,61.339939 1889,60.8125 1889,60.513348 1888.7751,60.37431 1888.375,60.34375 z" fill="black"/>
</svg>
