<svg xmlns="http://www.w3.org/2000/svg" viewBox="958.22278 18.624477 60.607574 84.375523">
  <path d="M 978.59375,18.625 C 977.56319,18.596032 976.13993,19.766313 973,22.90625 967.12986,28.776384 964.44224,34.081076 965.9375,36.875 967.54239,39.873765 971.77141,42.092752 975.46875,41.84375 977.36801,41.715841 979.23257,41.888821 979.59375,42.25 979.95493,42.61118 979.94063,45.812824 979.5625,49.34375 L 978.875,55.75 973.15625,53.96875 C 962.2553,50.575993 957.49458,54.350646 958.3125,65.75 959.03314,75.793523 964,81.361304 964,72.125 964,68.764789 964.60455,66.497496 965.9375,64.875 L 967.875,62.5 971.65625,64.5 C 978.07658,67.887555 978.16402,71.37364 972.09375,81.8125 970.50864,84.538373 970.35797,85.698225 971.21875,88.3125 971.79501,90.062645 972.45538,93.525 972.6875,96 972.91963,98.475 973.306,101.0625 973.53125,101.75 973.7565,102.4375 974.65283,103 975.53125,103 980.27522,103 983.25385,98.107886 982.78125,91.09375 982.57079,87.970227 982.9364,86.490375 984.125,85.71875 985.44295,84.863156 986.82745,85.55311 991.125,89.3125 997.51019,94.89811 1000.4055,95.273705 1004.5,91 1006.0808,89.35 1007.691,88 1008.0625,88 1008.0703,88 1008.147,88.061315 1008.1562,88.0625 L 1008.125,86.25 C 1006.8047,86.319029 1005.5353,86.846149 1004.4062,88.09375 1000.2783,92.65496 999.36627,92.540776 991.90625,86.4375 988.07196,83.300553 984.81826,80.911929 984.65625,81.125 981.03905,85.88208 980,88.343606 980,92.3125 980,97.773003 979.26045,100 977.40625,100 976.5003,100 975.99678,98.86365 976,96.75 976.00272,94.9625 975.27586,91.451263 974.375,88.9375 972.74745,84.39601 972.73618,84.331958 975.4375,80.25 976.9327,77.990592 978.41998,74.321247 978.71875,72.09375 979.20105,68.497931 978.89569,67.711154 976.09375,65.09375 971.32021,60.634591 967.48305,60.166962 963.90625,63.59375 L 961,66.375 961,61.84375 C 961,55.170188 963.07965,53.624734 970.09375,55.09375 973.06258,55.715535 976.46577,57.127198 977.65625,58.21875 979.74379,60.132814 979.86396,60.122174 980.8125,58.34375 981.35343,57.32955 982.04421,53.510162 982.34375,49.875 983.02765,41.575358 981.39043,38.459413 976.8125,39.375 972.97932,40.141635 968,37.648322 968,34.9375 968,32.037567 970.34538,27.965678 974,24.5 977.06339,21.594995 977.19424,21.574682 978.5625,23.4375 979.33965,24.495554 980.25422,26.815149 980.59375,28.625 980.93328,30.434851 981.76818,32.418581 982.46875,33 984.33853,34.551783 988.44518,32.687157 991.125,29.0625 993.82889,25.405293 995,25.17412 995,28.34375 995,32.305709 992.98721,36.798115 990.4375,38.46875 988.1723,39.952962 988,40.621421 988,48.90625 988,58.98051 989.11208,60.480509 994,57 997.72424,54.348109 998.1108,54.419324 1002.3125,58.5 1008.432,64.443192 1010.3211,63.153181 1011.875,51.96875 1013.3458,41.38298 1012.0278,37 1007.375,37 1004.355,37 1004.2549,38.762131 1007.25,39.1875 1009.3969,39.492404 1009.4952,39.891131 1009.4062,48.28125 1009.2956,58.721916 1008.0617,60.912801 1004.5625,56.875 1001.0298,52.798582 998.86255,51.960674 995.96875,53.5625 991.47091,56.05223 991,55.517246 991,48.125 991,42.929832 991.40041,40.911717 992.65625,39.875 995.8455,37.242194 998.05711,30.601493 997.375,25.625 997.02719,23.087421 996.46127,21 996.125,21 995.78873,21 993.43446,23.25 990.90625,26 988.37804,28.75 985.77451,31 985.125,31 984.47549,31 983.67604,29.630195 983.34375,27.96875 983.01146,26.307304 982.35396,24.702264 981.875,24.40625 981.39604,24.110235 981,23.062696 981,22.0625 981,21.062304 980.33376,19.697274 979.53125,19.03125 979.23147,18.782457 978.93727,18.634656 978.59375,18.625 z M 1009.5,30.03125 C 1008.1531,30.179267 1006.6152,30.784978 1005.875,31.6875 1004.6428,33.190008 1004.7553,33.279878 1007,32.6875 1008.375,32.324631 1010.0625,32.00751 1010.75,32 1011.4375,31.99249 1012,31.55 1012,31 1012,30.178825 1010.8469,29.883233 1009.5,30.03125 z M 1008.0312,79.6875 1008,76.875 C 1005.9577,76.206998 1004.8471,76.481681 1001.75,78.53125 999.58434,79.964383 997.21459,80.911205 996.46875,80.625 994.46838,79.857385 993.62213,73.642801 994.96875,69.5625 996.75665,64.145107 998.55164,63.738238 1004.7188,67.21875 1010.533,70.500107 1012.0338,70.373999 1014.5312,66.5625 1017.1167,62.616503 1017.9989,57.575992 1018.5938,43 1019.0752,31.203346 1018.9033,29.058392 1017.3125,26 1015.9824,23.443062 1014.7438,22.426241 1012.6562,22.1875 1009.1908,21.791165 1004,23.7707 1004,25.5 1004,26.453782 1005.0717,26.377827 1008.4688,25.15625 1013.9557,23.183183 1014.6336,23.72124 1016.0312,31.28125 1017.7,40.308237 1015.0082,61.873146 1011.625,66.5 1010.2495,68.381165 1010.0697,68.346584 1004.9375,65.15625 998.38922,61.085622 995.5527,61.472975 993.28125,66.78125 991.13051,71.807429 991.2762,79.536175 993.5625,82.0625 995.55578,84.265052 997.97053,83.924139 1001.875,80.875 1004.0386,79.185313 1005.7847,78.842111 1008.0312,79.6875 z" fill="black"/>
</svg>
