<svg xmlns="http://www.w3.org/2000/svg" viewBox="1949.8367 21.64474 32.57586 79.35526">
  <path d="M 1960.6562 50.25 L 1960.6562 56.15625 C 1960.7594 56.599786 1960.9731 56.787995 1960.9688 57.3125 C 1960.9661 57.630031 1960.8113 57.93778 1960.6562 58.25 L 1960.6562 58.65625 L 1959.4062 65.03125 C 1960.5712 66.521455 1959.7952 71.020861 1957.625 74.21875 C 1951.1352 83.782014 1949.8011 86.860013 1950.4688 90.8125 C 1951.1953 95.112864 1954.4079 101 1956.0312 101 C 1956.6143 101 1958.2188 99.874935 1959.5938 98.5 C 1961.6781 96.415683 1961.9913 95.420379 1961.4375 92.46875 C 1960.9381 89.806295 1961.1972 88.442836 1962.5312 86.96875 C 1963.5068 85.890747 1964.7286 85 1965.25 85 C 1965.7713 85 1969.3212 88.182463 1973.125 92.0625 L 1979.625 98.65625 L 1979.875 94.375 C 1978.5773 93.611179 1975.7531 91.230784 1972.4062 87.90625 C 1965.2971 80.844638 1965.2253 80.795142 1962.7188 82.4375 C 1959.469 84.566781 1957.7955 88.690612 1958.1875 93.59375 C 1958.422 96.527495 1958.1299 97.5 1957 97.5 C 1955.2795 97.5 1951.6345 87.397043 1952.7188 85.625 C 1953.0937 85.012171 1955.4143 81.887792 1957.8438 78.6875 C 1961.9052 73.337337 1962.3241 72.209989 1963.125 64.6875 C 1963.604 60.187792 1963.6596 53.575 1963.25 50 L 1962.5 43.5 L 1958.5 43.40625 C 1953.3295 43.293653 1953.4445 42.220224 1959.5625 32.5625 C 1965.8067 22.705384 1967.0072 22.70566 1971.5312 32.5 C 1975.6767 41.474477 1975.824 43 1972.5625 43 C 1971.1195 43 1969.9162 43.71191 1969.5938 44.75 C 1969.2947 45.7125 1968.9585 52.91959 1968.8438 60.75 L 1968.625 74.96875 L 1974.5625 81 C 1977.0665 83.536237 1979.1301 85.276664 1980.375 86.15625 L 1980.625 81.875 C 1979.6252 81.154779 1978.2688 80.105462 1976.0312 77.9375 L 1970.7812 72.875 L 1971.3438 60.21875 C 1971.7867 49.697366 1972.1598 47.352638 1973.625 46.28125 C 1974.5935 45.573082 1975.9677 45 1976.6875 45 C 1977.5145 45 1978 43.723168 1978 41.53125 C 1978 39.623186 1978.9775 36.165186 1980.1875 33.84375 C 1982.3354 29.722964 1983.1179 23.774113 1981.6875 22.34375 C 1981.2943 21.950511 1979.4142 23.143776 1977.5312 24.96875 L 1974.125 28.28125 L 1970.625 24.5625 C 1966.7323 20.435063 1964.7877 20.641765 1961.625 25.46875 C 1959.4234 28.828818 1957.8665 28.640013 1955.6875 24.8125 C 1954.1089 22.039561 1953.7217 21.840841 1952.4375 23.125 C 1949.6334 25.929068 1949.0222 30.570254 1950.9688 34.1875 C 1952.2937 36.649724 1952.5029 38.142469 1951.8125 39.96875 C 1951.3009 41.322282 1951.1487 43.474783 1951.4688 44.75 C 1951.9562 46.69218 1952.6321 47.011956 1955.5938 46.8125 C 1958.7355 46.60092 1960.9422 47.926761 1961 50.0625 C 1961.0003 50.07413 1960.6674 50.233145 1960.6562 50.25 z M 1953.8125 27 C 1954.9477 27 1957.0613 31.626151 1956.2812 32.40625 C 1955.3153 33.372274 1954.3185 33.088761 1953 31.5 C 1951.7276 29.966937 1952.2692 27 1953.8125 27 z M 1978.6562 28.53125 C 1978.9409 28.610861 1979 29.002176 1979 29.78125 C 1979 30.775911 1978.4725 32.1525 1977.8125 32.8125 C 1976.1077 34.517343 1975 34.295478 1975 32.25 C 1975 31.282301 1975.9 29.905711 1977 29.21875 C 1977.8616 28.680683 1978.3716 28.451639 1978.6562 28.53125 z " fill="black"/>
</svg>
