<svg xmlns="http://www.w3.org/2000/svg" viewBox="1494.0625 15.189987 38.923834 81.251478">
  <path d="M 1512.5918,94.757266 C 1505.4935,84.584548 1503.9791,82.350312 1503.4676,81.29567 1503.1464,80.633288 1504.4621,77.483288 1506.3914,74.29567 1511.1104,66.498953 1511.7224,63.108584 1509.0289,59.684385 1506.2639,56.169307 1503.0545,56.270944 1499.0625,60 1495.0277,63.769056 1494.0625,63.769612 1494.0625,60.002881 1494.0625,55.257631 1499.9544,49.420081 1505.8348,48.33922 L 1510.5625,47.470234 1510.2218,42.485117 C 1510.0344,39.743303 1509.5844,37.197403 1509.2218,36.827563 1508.8592,36.457723 1506.8699,36.743958 1504.8011,37.463641 1500.1836,39.069985 1499.3402,38.041958 1501.5152,33.458482 1502.8608,30.622708 1502.9476,29.348682 1502.0087,26.214805 1499.6602,18.376294 1502.7598,14.488127 1507.6756,19.106229 L 1510.1102,21.393467 1513.03,18.196733 C 1516.7001,14.178475 1517.9069,14.184165 1521.2362,18.235424 L 1523.91,21.488879 1527.0548,19.163778 C 1533.0975,14.696228 1534.9374,18.957677 1530.635,27.45603 1528.7528,31.173782 1528.4174,32.803319 1529.1421,34.709424 1530.3103,37.78187 1529.4679,39.263447 1526.9985,38.479694 1523.3748,37.329559 1521.9188,39.293684 1521.4551,45.958014 1521.1966,49.672765 1521.4624,52.77691 1522.1053,53.551573 1522.7034,54.272235 1523.4442,57.298669 1523.7516,60.276984 1524.2558,65.161558 1523.9454,66.378462 1520.5841,72.697621 1516.9899,79.45444 1516.9126,79.809474 1518.4065,82.698353 1519.2584,84.345719 1519.7816,86.550012 1519.5692,87.596782 1519.3568,88.643552 1518.9255,90.724511 1518.6109,92.221135 1518.2963,93.71776 1517.1677,95.408529 1516.1029,95.978401 1514.5391,96.815298 1513.864,96.580491 1512.5918,94.757266 z M 1516.0625,88.320998 C 1516.0625,86.847547 1515.5696,84.260047 1514.9672,82.570998 1514.0092,79.884846 1514.2547,78.776431 1516.9264,73.726057 1521.031,65.966946 1521.6434,62.072161 1519.6952,56.115958 1518.6303,52.860156 1518.223,48.803564 1518.4659,43.873367 1518.805,36.990816 1518.9867,36.480094 1521.1958,36.200965 1525.9382,35.601755 1526.0619,35.29684 1523.5106,30.498391 1522.1641,27.96607 1521.0625,25.408598 1521.0625,24.815119 1521.0625,24.221641 1520.1157,22.204166 1518.9586,20.331842 1516.4414,16.258959 1516.0312,16.487173 1509.5544,25.563595 1503.0576,34.668074 1502.8759,35.454237 1507.4407,34.71348 1511.943,33.982862 1512.7076,35.353577 1513.2225,45.078351 1513.538,51.037921 1513.4186,51.475169 1511.5625,51.154917 1506.8798,50.346966 1502.5492,51.133569 1500.3607,53.189582 1497.6437,55.742061 1497.3308,57.445362 1499.8125,56.173516 1504.4234,53.810469 1506.886,53.950703 1509.8868,56.747206 1515.1674,61.668306 1514.6456,68.396083 1508.3399,76.691961 L 1505.9137,79.883922 1510.0196,85.441961 C 1514.5755,91.609044 1516.0625,92.317496 1516.0625,88.320998 z M 1507.3241,24.75 C 1508.0749,22.776582 1506.2823,19 1504.5947,19 1503.0267,19 1502.5844,21.590419 1503.6695,24.418213 1504.3936,26.30527 1506.6543,26.510506 1507.3241,24.75 z M 1528.9778,24.813125 C 1530.3879,20.76819 1529.229,19.597274 1526.2362,22.043027 1524.5994,23.380699 1524.1007,24.545085 1524.5536,25.972045 1525.5146,28.999727 1527.7197,28.422089 1528.9778,24.813125 z" fill="black"/>
</svg>
